<?xml version="1.0" encoding="UTF-8" standalone="no"?>
<!-- Created with Inkscape (http://www.inkscape.org/) -->

<svg
   version="1.1"
   id="svg1"
   width="64"
   height="64"
   viewBox="0 0 64 64"
   sodipodi:docname="fav.svg"
   inkscape:version="1.4 (86a8ad7, 2024-10-11)"
   xml:space="preserve"
   xmlns:inkscape="http://www.inkscape.org/namespaces/inkscape"
   xmlns:sodipodi="http://sodipodi.sourceforge.net/DTD/sodipodi-0.dtd"
   xmlns="http://www.w3.org/2000/svg"
   xmlns:svg="http://www.w3.org/2000/svg"><defs
     id="defs1" /><sodipodi:namedview
     id="namedview1"
     pagecolor="#ffffff"
     bordercolor="#000000"
     borderopacity="0.25"
     inkscape:showpageshadow="2"
     inkscape:pageopacity="0.0"
     inkscape:pagecheckerboard="0"
     inkscape:deskcolor="#d1d1d1"
     inkscape:zoom="8.540524"
     inkscape:cx="27.398787"
     inkscape:cy="32.843418"
     inkscape:window-width="1920"
     inkscape:window-height="991"
     inkscape:window-x="-9"
     inkscape:window-y="-9"
     inkscape:window-maximized="1"
     inkscape:current-layer="g1" /><g
     inkscape:groupmode="layer"
     inkscape:label="Image"
     id="g1"><g
       id="g35"
       transform="matrix(0.1086686,0,0,0.1086686,-23.325146,-18.609477)"><path
         style="fill:#0a426a"
         d="m 328.23089,759.88182 c -18.84091,-3.77164 -34.53667,-17.72025 -41.61212,-36.98014 -3.71469,-10.11167 -3.77938,-264.05441 -0.0696,-273.24046 7.22548,-17.89154 22.12331,-28.22057 42.68172,-29.5923 10,-0.66724 10,-0.66724 10.58827,-48.66724 0.4769,-38.9122 0.91115,-49.79863 2.29362,-57.5 34.04657,-189.66386 305.94034,-189.26664 342.24874,0.5 1.41756,7.4089 1.82341,17.48587 2.29568,57 0.57369,48 0.57369,48 11.07369,48.63138 24.39801,1.46708 40.22191,14.45372 45.53705,37.37214 3.23662,13.95606 1.57342,253.27004 -1.82703,262.88663 -7.31743,20.69392 -24.3849,35.98184 -44.14368,39.54101 -7.06608,1.27283 -362.71696,1.32002 -369.06634,0.049 z m 209.38825,-85.5521 c 5.85648,-2.3433 6.54815,-4.88094 5.21537,-19.13431 -4.70497,-50.31709 -4.6606,-51.94286 1.60061,-58.64411 30.28179,-32.41 10.50841,-83.64962 -32.2804,-83.64962 -43.04529,0 -60.90471,50.54029 -29.9582,84.77856 4.77106,5.27856 4.77106,5.27856 2.07274,38.30347 -3.01398,36.88816 -3.01707,36.85588 3.71683,38.80054 5.90737,1.70597 45.13116,1.34677 49.63305,-0.45453 z m 89.60692,-293.42804 c -0.003,-27.29733 -0.387,-40.68234 -1.3182,-46 -23.5866,-134.69156 -201.45967,-136.66054 -225.84431,-2.5 -1.54651,8.50867 -3.17393,80.01197 -1.93356,84.95401 0.64113,2.55446 0.64113,2.55446 114.87101,2.30023 114.22989,-0.25424 114.22989,-0.25424 114.22506,-38.75424 z"
         id="path36" /><path
         style="fill:#083c5f"
         d="m 468.73089,758.90168 c -160.42954,-0.56291 -147.60069,0.28094 -161.78432,-10.64175 -20.69018,-15.93334 -20.71051,-16.03708 -20.7441,-105.85825 -0.0253,-67.57605 0.0317,-70.45793 0.5139,-26 0.4308,39.719 0.59086,44.10556 0.77842,21.33334 0.16908,-20.52954 0.56253,-28.77548 1.3861,-29.05 0.6325,-0.21084 1.195,-1.92968 1.25,-3.81964 0.0688,-2.36392 0.62167,-3.53677 1.77161,-3.75823 1.22595,-0.2361 1.53524,0.19954 1.1601,1.63407 -1.12763,4.31204 4.49579,8.65832 6.02992,4.66046 0.31658,-0.825 1.18357,-1.5 1.92665,-1.5 1.47164,0 6.31982,-5.05607 5.95851,-6.21401 -0.12254,-0.39271 0.46021,-0.45192 1.29501,-0.13158 0.92366,0.35445 1.29449,1.28604 0.94732,2.37986 -0.62931,1.98278 0.91474,3.4522 2.55944,2.43572 0.71794,-0.44371 0.68267,-1.08891 -0.11188,-2.04628 -0.63824,-0.76903 -0.89921,-2.07897 -0.57994,-2.91097 0.6172,-1.60842 5.16316,-2.09857 6.05655,-0.65303 0.29223,0.47284 2.35372,0.75688 4.58109,0.6312 2.22737,-0.12567 4.29139,0.16246 4.58671,0.6403 1.82759,2.9571 7.35452,0.80277 9.31588,-3.63121 2.19157,-4.95439 4.10303,-5.88612 4.10303,-2 0,2.91492 1.59866,3.33988 2.45183,0.65176 0.48572,-1.53036 4.34624,-4.15176 6.11427,-4.15176 0.2596,0 0.18965,1.125 -0.15546,2.5 -0.40863,1.62812 -0.20825,2.5 0.57457,2.5 0.66112,0 1.43738,-0.9 1.72504,-2 0.70922,-2.71208 1.43888,-2.51954 3.78975,1 1.1,1.64684 2.80162,2.99555 3.78138,2.99713 0.97977,0.002 2.03523,0.66436 2.34547,1.47285 0.3626,0.94492 1.86945,1.44196 4.21862,1.39154 2.00999,-0.0431 4.89203,0.24783 6.40453,0.6466 2.16492,0.57078 2.75,0.3811 2.75,-0.89154 0,-0.94991 -0.82479,-1.61658 -2,-1.61658 -1.1,0 -2,-0.42222 -2,-0.93826 0,-0.51605 -1.10057,-0.85355 -2.4457,-0.75 -1.34513,0.10354 -2.49698,-0.26174 -2.55967,-0.81174 -0.0627,-0.55 -0.98712,-1.323 -2.0543,-1.71777 -1.22063,-0.45155 -1.94033,-1.65702 -1.94033,-3.25 0,-3.43852 1.13274,-3.19028 5.37568,1.17804 3.72511,3.83519 7.82696,3.64867 4.62432,-0.21027 -1.6296,-1.96355 0.0551,-4.07656 2.50173,-3.13771 1.10481,0.42396 1.42951,1.27898 0.99983,2.63279 -0.50285,1.58436 -0.18303,2.00492 1.52467,2.00492 1.32,0 2.36455,-0.77834 2.68402,-2 0.28946,-1.10691 1.36402,-2 2.40638,-2 2.08,0 2.498,1.98538 0.77974,3.70363 -0.73016,0.73016 -0.78058,1.68087 -0.14899,2.80945 0.89845,1.60544 0.99345,1.60468 1.61419,-0.0129 0.52287,-1.36259 1.38266,-1.58311 4.14899,-1.06414 2.17797,0.40858 3.48944,0.26175 3.48944,-0.3907 0,-1.61062 2.98919,-1.23706 3.63837,0.45469 0.56643,1.4761 4.59884,2.21165 4.11163,0.75 -0.1375,-0.4125 0.13844,-0.83607 0.61321,-0.94126 1.15465,-0.25585 3.63291,-5.12337 3.6521,-7.17305 0.01,-1.01922 0.29221,-1.22574 0.75,-0.54797 1.18022,1.74733 5.04464,2.34992 5.61067,0.87489 0.5172,-1.34782 -0.71386,-2.73065 -3.37598,-3.7922 -0.825,-0.32898 0.075,-0.5019 2,-0.38428 3.00963,0.18391 3.5,0.56413 3.5,2.71387 0,1.75713 0.4862,2.42045 1.63622,2.23229 0.89991,-0.14723 1.87409,0.35221 2.16484,1.10988 0.75215,1.96008 10.09417,3.05246 12.61916,1.47558 2.54126,-1.58704 3.86636,-0.30691 2.29192,2.21416 -1.7937,2.87217 -1.55365,3.12279 2.29882,2.40006 2.14995,-0.40333 4.05466,-0.20743 4.91353,0.50536 1.12351,0.93244 1.76125,0.55681 3.2054,-1.88793 1.85654,-3.14287 4.55713,-4.62363 7.62011,-4.17818 1.34115,0.19504 1.75,-0.46107 1.75,-2.80836 0,-3.44022 0.70954,-3.84234 2.48805,-1.41008 0.6647,0.90902 1.72681,1.33247 2.36025,0.94098 1.59022,-0.98281 1.44633,-2.59376 -0.23167,-2.59376 -0.76085,0 -1.61872,-0.9 -1.90638,-2 -0.55875,-2.13667 0.28021,-2.60954 1.84811,-1.04164 1.70562,1.70562 4.05827,-0.51044 2.51546,-2.36941 -1.65136,-1.98977 -0.5722,-5.48732 1.15896,-3.75617 1.47675,1.47675 3.10904,1.52931 2.20781,0.0711 -0.4202,-0.67989 0.0277,-0.96033 1.1795,-0.73852 1.02132,0.19669 2.01787,1.19324 2.21456,2.21457 0.20327,1.05553 -0.0752,1.58945 -0.64526,1.23713 -0.59687,-0.36888 -0.79218,0.18588 -0.48244,1.37032 0.28624,1.09458 0.88817,1.76286 1.33764,1.48507 1.29732,-0.80179 2.07648,1.21668 2.13606,5.53362 0.0552,3.99785 1.01354,4.79007 3.72101,3.07588 1.17113,-0.74148 1.06051,-1.54194 -0.67261,-4.86699 -5.68,-10.89733 -7.90765,-28.05074 -4.7031,-36.21495 1.37379,-3.5 1.37379,-3.5 0.67392,1 -1.95142,12.54719 -0.17936,23.99769 5.45525,35.25 1.30822,2.6125 1.92099,4.75 1.36172,4.75 -1.53419,0 -1.1966,1.2293 1.09848,4 1.35606,1.63707 1.87697,1.89595 1.50915,0.75 -0.30894,-0.9625 -0.15647,-1.75 0.33882,-1.75 1.23033,0 4.71619,5.04268 5.1833,7.49821 0.22801,1.19865 1.17504,1.99892 2.36676,2 1.65899,10e-4 1.97855,0.66152 1.93754,4.00179 -0.11399,9.28513 -2.97431,50.67295 -4.04613,58.54604 -1.4355,10.54447 4.5901,12.96324 32.21126,12.93011 36.72957,-0.0441 34.67036,4.25864 29.31666,-61.257 -1.12612,-13.78084 -1.12612,-13.78084 3.7206,-18.51263 14.49493,-14.15119 18.76577,-30.30948 13.79883,-52.20652 -0.52257,-2.3038 -0.42523,-2.26456 1.24041,0.5 4.75382,7.89023 1.72211,32.15796 -5.20413,41.65723 -1.34053,1.83852 -2.84865,4.24277 -3.35138,5.34277 -0.50272,1.1 -2.35204,3.27468 -4.10958,4.83261 -1.75755,1.55794 -2.93548,3.09268 -2.61762,3.41054 0.31786,0.31786 1.39683,-0.16317 2.39771,-1.06896 1.32269,-1.19702 2.12005,-1.34662 2.919,-0.54767 1.76525,1.76526 3.43862,0.11078 2.08317,-2.05965 -1.20309,-1.92645 -0.74212,-2.74856 6.44031,-11.48565 1.5125,-1.83989 2.75,-4.2502 2.75,-5.35624 0,-6.12816 10.20849,-2.8518 12.54116,4.02502 0.36727,1.08273 1.61649,1.75143 3.27623,1.75374 1.47543,0.002 4.17216,0.91189 5.99273,2.02186 1.82056,1.10997 3.75277,1.74455 4.2938,1.41017 0.54103,-0.33437 1.62385,-0.0767 2.40626,0.57268 0.78242,0.64935 2.0002,0.96673 2.7062,0.70529 0.76712,-0.28408 0.23196,-0.89486 -1.33,-1.51794 -2.60488,-1.03911 -3.88638,-2.98214 -3.88638,-5.8926 0,-1.35842 0.27904,-1.35038 2.4476,0.0705 2.59823,1.70243 5.98755,1.19702 4.88541,-0.72849 -0.36053,-0.62987 0.46294,-0.1286 1.82993,1.11393 1.36699,1.24253 2.77867,1.9659 3.13708,1.6075 0.35841,-0.35841 1.3484,-0.0734 2.19998,0.63335 0.85158,0.70675 1.86192,0.97141 2.2452,0.58813 0.38329,-0.38328 0.14544,-1.03768 -0.52854,-1.45423 -0.67398,-0.41654 -1.12799,-1.93463 -1.0089,-3.37353 0.11909,-1.4389 0.56749,-2.39927 0.99646,-2.13415 0.42897,0.26511 1.571,0.0214 2.53786,-0.54169 0.97068,-0.56527 1.19814,-1.03733 0.50792,-1.05412 -2.20112,-0.0535 -1.33483,-2.03041 0.88976,-2.03041 1.17686,0 2.77516,-0.7875 3.55178,-1.75 1.30991,-1.62346 1.36995,-1.59583 0.83027,0.3821 -0.48441,1.77535 -0.0815,2.20553 2.4081,2.57092 2.60004,0.38161 3.06864,0.0801 3.59425,-2.313 0.64241,-2.92488 3.09795,-5.60124 4.16245,-4.53674 0.35105,0.35105 0.14206,1.72732 -0.46441,3.05839 -0.90628,1.98907 -0.7571,2.81858 0.83756,4.65724 1.94024,2.23711 1.94024,2.23711 1.94024,0.0519 0,-1.32932 0.85033,-2.49979 2.17097,-2.98833 1.46206,-0.54085 1.78327,-1.0427 0.98369,-1.53687 -0.65301,-0.40358 -0.92839,-1.15269 -0.61196,-1.66469 1.01465,-1.64173 2.4573,-0.99565 2.4573,1.10049 0,1.11726 0.675,2.2904 1.5,2.60699 0.825,0.31658 1.5,1.68278 1.5,3.036 0,1.94303 0.39087,2.33634 1.85882,1.87043 1.07308,-0.34058 2.39296,0.0536 3.12244,0.93261 2.07634,2.50184 4.154,1.90968 3.42938,-0.97742 -0.79555,-3.16974 1.98195,-3.50347 3.62391,-0.43543 1.25445,2.34395 3.93902,1.04304 3.99725,-1.93701 0.0716,-3.6617 2.56962,-5.43482 5.21493,-3.70155 2.97007,1.94607 3.93086,1.1713 2.66767,-2.15115 -0.88223,-2.32043 -0.77842,-2.46266 1.31384,-1.80015 1.24947,0.39565 3.02622,0.77212 3.94834,0.83661 0.92212,0.0645 1.46623,0.45761 1.20913,0.8736 -0.50707,0.82046 2.31771,6.81508 3.2114,6.81508 0.30016,0 1.22075,-0.675 2.04575,-1.5 1.98231,-1.98232 4.75389,-1.97629 3.99218,0.009 -1.11438,2.90403 1.16307,6.90231 3.04741,5.35 1.48057,-1.21969 1.57923,-1.07736 0.96437,1.39131 -0.761,3.05543 -0.45908,3.27421 2.21434,1.60464 2.35309,-1.46953 12.30885,3.53875 11.45544,5.7627 -0.31597,0.82339 0.11943,1.38266 1.07641,1.38266 1.80676,0 2.15313,-1.54443 0.56631,-2.52514 -0.57237,-0.35374 -0.76634,-1.50752 -0.43105,-2.56394 0.39364,-1.24023 0.0558,-2.1333 -0.95358,-2.52063 -0.85976,-0.32992 -1.31125,-1.00753 -1.0033,-1.5058 0.30794,-0.49826 1.53049,-0.22611 2.71676,0.60479 3.1557,2.21033 4.53879,1.8602 4.89543,-1.23928 0.4377,-3.80407 2.70463,-3.44067 4.67858,0.75 1.81996,3.86376 6.13784,5.55415 6.13784,2.40289 0,-0.95492 -0.28417,-1.45205 -0.63148,-1.10474 -0.34732,0.34732 -1.56815,0.1302 -2.71296,-0.48248 -2.07919,-1.11276 -2.07898,-1.11489 0.19573,-1.95636 2.32347,-0.85951 2.11133,-2.85931 -0.30332,-2.85931 -0.7337,0 -1.59302,-0.675 -1.9096,-1.5 -0.34112,-0.88896 -0.0107,-1.5 0.81123,-1.5 0.76275,0 2.09863,-0.27314 2.96861,-0.60699 1.23083,-0.47231 1.58179,0.0746 1.58179,2.46482 0,2.15301 0.66632,3.42841 2.22769,4.26403 2.16098,1.15652 2.16847,1.21426 0.25,1.92785 -1.79805,0.6688 -1.82106,0.79961 -0.25339,1.44008 1.75296,0.71617 4.7757,-1.4101 4.7757,-3.35934 0,-1.5382 1.43416,-2.09819 2.95939,-1.15554 1.06215,0.65644 0.71973,1.41668 -1.54774,3.43624 -2.8312,2.52165 -2.84257,2.56908 -0.41165,1.71666 1.87923,-0.65897 3.43543,-0.34915 6.26725,1.24777 3.03883,1.71365 3.93079,1.86582 4.61304,0.787 1.07913,-1.70638 10.81711,-2.46121 11.77417,-0.91266 0.3848,0.62263 0.16997,1.30861 -0.47741,1.5244 -1.58367,0.52789 -1.4842,2.22668 0.24282,4.14694 1.40689,1.56431 1.90451,8.97734 2.7575,41.07874 0.16807,6.325 0.53825,-26.525 0.82263,-73 0.51705,-84.5 0.51705,-84.5 0.74116,30 0.24813,126.76984 0.46486,122.0369 -6.20953,135.60171 -6.42895,13.06599 -20.55145,24.50931 -35.53163,28.7909 -7.11005,2.03218 -42.01414,2.27401 -232,1.60739 z"
         id="path35" /></g></g></svg>
