<?xml version="1.0" encoding="UTF-8" standalone="no"?>
<!-- Created with Inkscape (http://www.inkscape.org/) -->

<svg
   version="1.1"
   id="svg1"
   width="1024"
   height="400"
   viewBox="0 0 1024 400"
   sodipodi:docname="ses_logo.svg"
   inkscape:version="1.4 (86a8ad7, 2024-10-11)"
   xmlns:inkscape="http://www.inkscape.org/namespaces/inkscape"
   xmlns:sodipodi="http://sodipodi.sourceforge.net/DTD/sodipodi-0.dtd"
   xmlns="http://www.w3.org/2000/svg"
   xmlns:svg="http://www.w3.org/2000/svg">
  <defs
     id="defs1" />
  <sodipodi:namedview
     id="namedview1"
     pagecolor="#ffffff"
     bordercolor="#000000"
     borderopacity="0.25"
     inkscape:showpageshadow="2"
     inkscape:pageopacity="0.0"
     inkscape:pagecheckerboard="0"
     inkscape:deskcolor="#d1d1d1"
     inkscape:zoom="0.75488281"
     inkscape:cx="510.67529"
     inkscape:cy="341.11255"
     inkscape:window-width="1920"
     inkscape:window-height="991"
     inkscape:window-x="-9"
     inkscape:window-y="-9"
     inkscape:window-maximized="1"
     inkscape:current-layer="g1" />
  <g
     inkscape:groupmode="layer"
     inkscape:label="Image"
     id="g1">
    <path
       style="fill:#03284a;stroke-width:1.27927"
       d="m 20.225146,599.23096 c -8.9434,-3.34903 -14.7116447,-10.01439 -14.7116447,-16.99972 0,-3.06121 0.393195,-3.26171 6.3963687,-3.26171 4.91642,0 6.396357,0.45744 6.396357,1.97705 0,1.08738 1.413029,3.39008 3.140041,5.11709 2.547315,2.54732 4.425398,3.14004 9.949536,3.14004 7.849135,0 12.495887,-2.56967 12.495887,-6.91027 0,-4.1883 -2.896422,-6.17297 -16.721027,-11.45742 -15.933969,-6.09076 -19.7382557,-9.82235 -19.7382557,-19.36105 0,-7.40975 2.271833,-11.6814 8.8079537,-16.56131 2.972416,-2.21924 5.409699,-2.6376 15.365965,-2.6376 10.52198,0 12.351466,0.35439 16.510368,3.19818 4.494843,3.07351 6.746292,6.69724 7.550811,12.1531 0.325777,2.20931 -0.452817,2.61179 -5.704205,2.94866 -5.474521,0.35117 -6.202558,0.0716 -7.29458,-2.80059 -1.570004,-4.1294 -5.023393,-5.9048 -11.485661,-5.9048 -5.568724,0 -10.318279,3.33955 -10.318279,7.25509 0,3.84667 3.861496,6.53748 15.596464,10.86806 6.355159,2.34527 13.592237,6.02005 16.082377,8.16617 3.938895,3.3947 4.600376,4.80849 5.087762,10.87382 0.464385,5.7792 0.04759,7.72584 -2.436456,11.38007 -4.670693,6.87092 -10.175207,9.40788 -21.395878,9.86107 -5.354848,0.21627 -11.463102,-0.25349 -13.573904,-1.04393 z M 88.666254,572.64002 V 544.42915 H 77.79243 66.918611 v -6.39636 -6.39636 h 28.552393 28.552416 l -0.20553,6.07655 -0.20553,6.07654 -10.41225,0.37115 -10.41225,0.37116 -0.34462,27.77285 -0.34462,27.77285 -6.716186,0.38668 -6.71618,0.38667 z m 61.710696,26.36949 c -20.73883,-7.52137 -27.67005,-40.13329 -12.17502,-57.28443 6.9156,-7.65474 12.60137,-10.08865 23.56766,-10.08865 20.35669,0 31.81555,12.64984 31.78456,35.08807 -0.0201,14.57159 -6.86406,26.23441 -18.53696,31.58912 -5.87712,2.696 -18.16813,3.04314 -24.64024,0.69589 z m 20.79061,-13.86288 c 11.237,-8.83903 10.7201,-32.20841 -0.87328,-39.48189 -8.01771,-5.03017 -18.67877,-1.50896 -23.37169,7.71932 -4.74207,9.325 -3.05994,22.88943 3.73157,30.09051 3.70339,3.92675 4.94826,4.44987 10.58938,4.44987 4.62374,0 7.36976,-0.76864 9.92402,-2.77781 z m 36.47109,-19.09534 V 531.3854 l 16.95036,0.44961 c 14.99908,0.39786 17.5589,0.79784 22.23647,3.47451 6.66624,3.81464 10.70482,10.78854 10.70482,18.48526 0,7.70567 -1.73989,11.91481 -6.91188,16.72114 l -4.27864,3.97616 7.51417,12.59287 c 4.13279,6.92609 7.51417,12.85421 7.51417,13.1736 0,0.31938 -3.56859,0.40932 -7.93019,0.19985 l -7.9302,-0.38087 -6.62923,-11.51346 -6.62921,-11.51345 -5.90895,-0.38991 -5.90896,-0.38991 v 12.22318 12.22318 h -6.39637 -6.39636 z m 30.61106,-3.02535 c 6.14235,-3.17635 7.11099,-10.41431 2.06854,-15.45675 -2.69423,-2.69424 -4.32884,-3.14004 -11.51345,-3.14004 h -8.37342 v 10.23418 10.2342 h 7.09953 c 3.90474,0 8.72819,-0.84223 10.7188,-1.87159 z m 30.79405,37.2719 c 0,-0.46919 19.4184,-57.99834 21.77262,-64.50378 1.49245,-4.12413 1.57326,-4.15763 10.02841,-4.15763 h 8.52381 l 11.26001,32.72593 c 6.193,17.99926 11.58519,33.57335 11.98264,34.60909 0.59476,1.54994 -0.58991,1.81439 -6.69537,1.49461 l -7.41798,-0.38853 -2.46087,-7.39923 -2.46087,-7.39924 -12.88758,0.36323 -12.88757,0.36324 -2.44924,7.35582 -2.44923,7.35581 h -6.92939 c -3.81116,0 -6.92939,-0.1887 -6.92939,-0.41932 z m 40.56326,-28.0445 c -0.32267,-0.87949 -2.24158,-6.91775 -4.26424,-13.41831 -2.02265,-6.50058 -3.99067,-11.82556 -4.37334,-11.83329 -0.38268,-0.008 -2.2057,4.73526 -4.05119,10.53997 -5.8389,18.36557 -6.35892,16.31073 4.12773,16.31073 6.77822,0 8.99576,-0.41421 8.56104,-1.5991 z m 48.61097,26.50268 c -12.11395,-4.44597 -18.57384,-13.99944 -19.72081,-29.16493 -1.28139,-16.94296 4.81918,-29.58431 17.05202,-35.33442 10.4975,-4.93441 26.65654,-3.27614 34.15535,3.5051 3.14024,2.83973 7.26651,10.95544 7.26651,14.29206 0,2.28027 -0.81101,2.6095 -6.42802,2.6095 -5.58443,0 -6.57923,-0.39767 -7.5801,-3.03017 -1.82057,-4.78841 -7.46913,-8.48328 -12.96894,-8.48328 -11.23041,0 -16.57821,6.46049 -17.52206,21.16782 -0.7483,11.65999 2.48059,19.63628 9.24918,22.84817 10.8125,5.13087 23.73649,-1.11853 23.73649,-11.4778 0,-1.39887 -1.90247,-1.83563 -7.99546,-1.83563 h -7.99546 v -4.47746 -4.47745 h 15.03145 15.03147 v 4.91377 c 0,6.51869 -2.84665,15.68656 -6.43583,20.72709 -6.1855,8.68675 -22.87971,12.62034 -34.87579,8.21763 z m 55.0639,1.215 c -0.44248,-0.44247 -0.85565,-15.99877 -0.91817,-34.56954 L 412.25,531.63643 h 22.42343 22.42341 v 6.39636 6.39636 h -15.35128 -15.35127 v 7.67564 7.67564 h 14.072 14.07201 v 5.75674 5.75672 h -14.13046 -14.13045 l 0.37827,8.43624 0.37827,8.43624 15.35127,0.19885 15.35128,0.19885 v 5.75674 5.75672 l -21.82507,0.34899 c -12.00381,0.19194 -22.18711,-0.013 -22.62958,-0.4555 z M 22.145979,495.68906 C 12.714423,493.84256 5.8469843,487.21471 5.2184973,479.35215 l -0.344632,-4.31155 6.3963687,-0.0351 c 5.558017,-0.0306 6.449498,0.32165 6.801812,2.68696 0.223009,1.49714 1.950021,3.94149 3.837826,5.43187 2.77268,2.18898 4.708266,2.60515 10.070999,2.1654 7.846858,-0.64341 10.631548,-2.57715 10.631548,-7.3827 0,-4.63767 -1.16524,-5.4611 -15.415094,-10.89327 C 9.3942583,460.22705 4.0326689,453.7378 6.6401153,442.13286 c 2.322526,-10.33674 10.2535127,-15.4128 24.0125477,-15.36868 5.857224,0.0188 10.555078,0.84225 14.172058,2.48417 5.740916,2.60608 10.567519,8.90354 10.575643,13.79847 0.0034,2.60182 -0.609734,2.87837 -6.391576,2.87837 -4.688256,0 -6.396369,-0.48763 -6.396369,-1.82606 0,-3.23756 -6.410566,-7.12885 -11.744123,-7.12885 -5.97019,0 -11.785797,4.77442 -10.431676,8.56405 1.52586,4.27026 3.078222,5.2791 15.528809,10.09183 7.946634,3.07174 13.89771,6.28143 16.561356,8.93234 3.798689,3.78052 4.157643,4.8225 4.157643,12.06924 0,7.26859 -0.353118,8.2846 -4.224993,12.15648 -2.570281,2.57028 -6.919956,5.02532 -11.106028,6.26844 -7.523096,2.23412 -10.536745,2.33399 -19.207428,0.63646 z m 127.151001,0.0212 c -6.53119,-1.55466 -15.09542,-8.73841 -18.59454,-15.59727 -1.68914,-3.31094 -2.8928,-8.73502 -3.31931,-14.95768 -0.93338,-13.61776 1.84225,-22.75773 9.12171,-30.03719 6.91579,-6.9158 12.49569,-8.78042 24.46645,-8.17593 7.94612,0.40127 10.24646,1.06788 14.81079,4.29208 5.36094,3.78689 9.17049,9.52666 10.81181,16.28994 l 0.85376,3.518 h -7.81432 c -6.57854,0 -7.81883,-0.35404 -7.84278,-2.23873 -0.0356,-2.79859 -3.56363,-7.24322 -7.24327,-9.125 -3.94132,-2.01561 -10.09821,-1.77389 -14.63998,0.57475 -11.18053,5.78167 -11.84019,34.34719 -0.969,41.96167 7.04144,4.93203 20.01258,1.31685 22.94458,-6.39485 1.01996,-2.68275 1.96247,-3.03019 8.21974,-3.03019 7.67054,0 7.7603,0.10424 5.61433,6.52529 -4.21409,12.60894 -20.85496,20.10014 -36.41997,16.39511 z m 69.32972,0.0161 c -7.52188,-1.85579 -12.65288,-5.56563 -16.15387,-11.67964 -3.01271,-5.26133 -3.16828,-6.62486 -3.58298,-31.4054 l -0.43353,-25.90534 h 7.14972 7.1497 v 25.04423 25.04424 l 3.73942,3.73941 c 3.16562,3.16562 4.75109,3.73942 10.33258,3.73942 5.58149,0 7.16696,-0.5738 10.33259,-3.73942 l 3.73942,-3.73941 v -25.04417 -25.04423 h 7.14969 7.14972 l -0.43353,25.90528 c -0.42779,25.56304 -0.47975,25.98393 -3.93344,31.85895 -5.5575,9.45382 -19.57884,14.34134 -32.20549,11.2261 z m 358.72187,0.23212 c -9.19049,-1.97794 -16.44879,-7.69825 -21.28179,-16.7723 -1.89115,-3.55068 -2.38477,-7.25781 -2.38477,-17.90982 0,-15.23431 1.98602,-20.73041 10.0491,-27.80989 6.1154,-5.3694 12.17961,-7.08275 23.1143,-6.53056 12.14006,0.61304 18.73783,4.67085 23.20913,14.27425 4.43934,9.53479 4.30144,9.83201 -4.56197,9.83201 -6.44645,0 -7.68019,-0.35851 -7.70409,-2.23872 -0.0656,-5.17068 -7.21845,-10.554 -14.02298,-10.554 -10.59656,0 -16.65113,8.37289 -16.65113,23.02691 0,15.24026 5.66162,23.02692 16.74268,23.02692 6.59622,0 12.05356,-3.30127 14.02375,-8.48328 1.01997,-2.68274 1.96249,-3.03019 8.21974,-3.03019 4.00556,0 7.06766,0.57206 7.06766,1.32037 0,2.65239 -4.03388,10.87709 -6.77723,13.81813 -6.23141,6.68044 -18.96037,10.19997 -29.0424,8.03017 z M 70.756426,461.2764 v -34.54037 h 21.747648 21.747636 v 6.39637 6.39637 H 98.839384 83.427074 l 0.38086,7.84519 0.38087,7.84518 13.75218,-0.24071 13.752186,-0.24071 v 6.46753 6.46752 h -14.072006 -14.072 v 8.31528 8.31527 h 15.9909 15.990926 v 5.75673 5.75673 H 93.143714 70.756426 Z m 199.566604,-0.12267 v -34.66304 l 17.59,0.44248 c 14.93114,0.37562 18.26615,0.8397 22.06311,3.07022 12.88391,7.56859 14.83419,25.26902 3.90896,35.47686 -2.85114,2.66392 -5.18388,5.04568 -5.18388,5.29283 0,0.24714 3.15509,5.83916 7.01131,12.4267 l 7.01132,11.97736 -6.53901,0.39248 c -3.59646,0.21585 -7.27665,0.10934 -8.1782,-0.23655 -0.90154,-0.34595 -4.32691,-5.5597 -7.61191,-11.5861 -5.69929,-10.45552 -6.17294,-10.95711 -10.34657,-10.95711 -2.40562,0 -4.73776,0.14392 -5.18254,0.31983 -0.44476,0.17589 -0.69796,5.35695 -0.56263,11.51345 l 0.24604,11.19364 h -7.11301 -7.11299 z m 32.44893,-3.808 c 2.59995,-2.04511 3.37071,-3.77902 3.37071,-7.58278 0,-7.20208 -4.31242,-10.23326 -14.56434,-10.23719 l -7.82294,-0.002 0.41724,10.23718 0.41722,10.2372 h 7.40572 c 5.55507,0 8.248,-0.66257 10.77639,-2.6514 z m 32.79399,3.93067 v -34.54037 h 22.38729 22.38727 v 6.39637 6.39637 h -15.35128 -15.35127 l -0.002,7.99545 -0.002,7.99546 14.07461,-0.39962 14.07452,-0.39964 v 6.47618 6.47617 h -14.07201 -14.072 v 8.31528 8.31527 h 15.68031 15.68031 l -0.45785,5.75673 -0.45786,5.75673 h -22.25904 -22.25847 z m 85.7113,0 v -34.54037 h 22.38728 22.38727 v 6.39637 6.39637 h -15.35127 -15.35128 l 8.9e-4,7.99545 8.9e-4,7.99546 h 13.75129 13.7513 l 0.38991,6.07654 0.38991,6.07655 h -14.14209 -14.1421 v 8.31528 8.31527 h 15.35128 15.35127 v 5.75673 5.75673 h -22.38727 -22.38728 z m 60.12583,0 v -34.54037 l 6.71619,0.0159 c 6.35319,0.015 6.88108,0.27427 9.76716,4.79728 6.41154,10.04807 26.40173,38.67222 27.01194,38.67868 0.35179,0.003 0.46946,-9.78041 0.2615,-21.74251 l -0.37816,-21.74935 h 7.09433 7.09433 v 34.60724 34.60722 l -6.65084,-0.38668 -6.65084,-0.38667 -14.77699,-21.55619 -14.77697,-21.55621 -0.35003,21.87603 -0.35004,21.87601 h -7.00578 -7.0058 z m 145.83713,0 v -34.54037 h 15.80002 c 17.27484,0 22.60106,1.18172 28.17264,6.25061 9.92063,9.02557 9.55568,23.8645 -0.81076,32.96636 l -4.55233,3.99699 4.12543,6.85684 c 2.26898,3.77127 5.72567,9.5913 7.68151,12.9334 l 3.55607,6.07655 -8.11701,-3.3e-4 -8.11701,-3.4e-4 -6.83708,-12.15276 c -6.8126,-12.10928 -6.85493,-12.15276 -11.83327,-12.15276 h -4.9962 v 12.1531 12.15309 h -7.036 -7.03601 z m 31.21832,-2.73488 c 6.17309,-2.81263 6.77682,-12.9049 1.03304,-17.26872 -1.23774,-0.94035 -5.66188,-1.68034 -10.1839,-1.70336 l -7.99545,-0.0407 v 10.23418 10.23418 h 6.97581 c 3.83669,0 8.41342,-0.65502 10.1705,-1.45561 z m 50.65516,25.90831 v -11.36697 l -8.08076,-14.53831 c -4.44443,-7.9961 -10.22932,-18.42412 -12.85534,-23.17343 l -4.77458,-8.63509 h 8.07907 8.07907 l 7.65464,14.69047 c 4.21005,8.07975 8.00889,14.69999 8.44189,14.71164 0.43298,0.0116 4.17486,-6.59208 8.31528,-14.67493 l 7.528,-14.69611 8.07097,-0.0155 c 4.43903,-0.009 7.82791,0.41622 7.53087,0.94392 -0.29705,0.5277 -5.79992,10.53131 -12.22859,22.23023 l -11.68852,21.27073 v 12.31015 12.31013 h -7.036 -7.036 z m 48.61237,-23.17343 v -34.54037 l 15.03146,0.0561 c 18.43281,0.0687 25.85465,2.22618 31.38373,9.12318 6.58622,8.21568 6.37221,21.9741 -0.46289,29.75885 -4.76093,5.42236 -13.18596,8.39505 -23.79291,8.39505 h -8.08738 v 10.87382 10.87381 h -7.036 -7.03601 z m 33.95888,-3.14004 c 2.16795,-2.16793 3.14004,-4.56216 3.14004,-7.73378 0,-3.17162 -0.97209,-5.56584 -3.14004,-7.73377 -2.69422,-2.69424 -4.32884,-3.14004 -11.51346,-3.14004 h -8.37341 v 10.87381 10.87382 h 8.37341 c 7.18462,0 8.81924,-0.4458 11.51346,-3.14004 z m 47.56923,9.53704 0.29428,-28.14463 H 828.70017 817.8519 v -6.39637 -6.39637 h 28.14401 28.144 v 6.39637 6.39637 h -10.87382 -10.87381 v 28.144 28.14401 l -6.71619,6.2e-4 -6.71619,6.4e-4 z m 46.3992,-6.397 v -34.54037 h 22.38728 22.38728 v 6.39637 6.39637 h -15.35128 -15.35127 l -0.002,7.99545 -0.002,7.99546 14.07462,-0.39962 14.07451,-0.39964 v 6.47618 6.47617 H 913.7985 899.72651 v 8.31528 8.31527 h 15.99091 15.99091 v 5.75673 5.75673 H 908.68142 885.6545 Z m 61.40511,-0.12267 v -34.66304 l 17.59,0.47555 c 19.9317,0.53885 25.0544,2.25588 32.04968,10.74246 5.29454,6.42319 6.99344,13.56932 6.46034,27.17493 -0.4074,10.39876 -0.8324,12.06996 -4.33704,17.05425 -7.84948,11.16359 -14.99318,13.86145 -36.73152,13.87176 l -15.03146,0.008 z m 34.43138,20.00776 c 5.29282,-2.73702 7.78462,-9.10209 7.78462,-19.88509 0,-16.22252 -4.6864,-21.3955 -19.9522,-22.0238 l -8.83144,-0.36347 -0.35001,22.06746 -0.35004,22.06746 h 9.04865 c 5.41949,0 10.49323,-0.74702 12.65042,-1.86256 z M 41.972783,388.29354 C 25.86472,387.18554 16.102491,380.99561 9.4419603,367.66672 l -3.928459,-7.86154 v -81.35777 c 0,-49.13117 0.495046,-83.08391 1.249767,-85.71544 3.20969,-11.19154 13.1360207,-19.88499 25.3568787,-22.20747 l 7.658951,-1.45553 0.599593,-32.03505 c 0.514727,-27.50074 0.988698,-33.48364 3.34857,-42.269254 14.389243,-53.57008 60.491019,-87.5329203 115.006259,-84.72429 29.29261,1.50916 54.78477,13.14984 75.2659,34.36928 14.523,15.04656 23.08567,30.48426 28.89031,52.08661 2.20242,8.196524 2.73194,14.913304 3.26729,41.443874 l 0.63889,31.662 h 3.45458 c 6.79347,0 15.82088,4.14816 21.30306,9.78892 9.7263,10.00764 9.47203,7.37998 9.47203,97.88418 0,75.73859 -0.13904,80.71853 -2.42143,86.72529 -3.66638,9.64911 -9.43957,16.06265 -18.4533,20.50011 l -7.93775,3.90773 -110.00306,0.29455 c -60.50169,0.16201 -114.608457,-0.0222 -120.237257,-0.40938 z M 169.84338,335.46766 c 2.19201,-1.60284 2.254,-2.66394 0.91541,-15.67109 -0.78968,-7.67352 -1.80784,-17.8663 -2.26256,-22.65063 l -0.82675,-8.69879 5.31706,-4.55121 c 7.69162,-6.58374 10.80701,-13.34822 10.80701,-23.46541 0,-18.64214 -15.36532,-32.47548 -33.66466,-30.30819 -16.27589,1.92764 -26.83072,13.96398 -26.89418,30.66911 -0.0348,9.17191 2.12586,14.50002 8.82927,21.77235 6.05261,6.56631 6.03033,6.35633 3.35187,31.5962 -2.50867,23.63974 -2.96107,23.02692 16.99903,23.02692 10.60464,0 15.77478,-0.51001 17.4285,-1.71926 z m 56.67573,-196.24825 c -0.67789,-34.20202 -1.7926,-39.870124 -10.85113,-55.176594 -20.1708,-34.08315 -68.68965,-45.05767 -102.52341,-23.18983 -14.526906,9.38917 -22.945446,19.96259 -29.425066,36.95691 -3.072031,8.057144 -3.253253,10.005294 -3.733014,40.130244 l -0.504258,31.662 h 73.819528 73.81954 z m 232.4967,195.93167 c -45.8599,-7.12197 -74.29844,-34.34416 -77.72517,-74.40073 l -0.57454,-6.71618 h 26.62763 26.62763 l 1.43313,5.43691 c 3.24977,12.32874 11.55975,21.83172 24.11901,27.58154 5.43639,2.48886 9.78024,3.3471 19.24835,3.80302 19.67819,0.94758 35.33195,-4.36111 43.17308,-14.64136 4.92013,-6.45062 5.75943,-19.28941 1.77197,-27.10548 -5.3651,-10.51645 -8.20133,-11.7843 -62.03188,-27.72937 -13.30752,-3.9418 -27.69934,-8.77407 -31.98182,-10.73839 -17.6541,-8.09767 -32.20003,-23.11354 -38.16414,-39.39709 -3.80193,-10.38024 -4.66348,-34.14301 -1.61996,-44.67996 7.54384,-26.11736 29.08086,-46.448594 57.44703,-54.230754 18.76841,-5.14902 48.5461,-5.42039 67.81351,-0.61797 4.2899,1.06925 13.24383,4.61818 19.89762,7.88647 25.81119,12.67832 43.55058,38.420894 43.55058,63.198644 v 5.05413 h -26.01537 -26.01536 l -2.15953,-7.76746 c -5.28928,-19.02445 -29.02987,-30.3644 -53.4931,-25.55156 -9.80498,1.92902 -15.75676,4.88534 -21.13857,10.49982 -8.01594,8.36248 -10.07482,18.89896 -5.61289,28.72444 4.74552,10.44998 12.27006,14.02662 54.62105,25.96313 31.47717,8.87175 38.75266,11.4857 49.75084,17.87461 32.1492,18.67564 42.85032,58.25222 25.5825,94.61333 -8.81039,18.55219 -29.76541,34.75326 -52.35045,40.47402 -18.48897,4.68323 -42.44566,5.62432 -62.78115,2.46624 z m 436.87174,-0.086 C 871.2848,331.27797 855.79181,324.08769 841.37509,309.76592 828.04928,296.52787 820.4513,280.02947 818.80203,260.75029 l -0.57455,-6.71615 h 26.52507 26.52508 l 1.49607,6.07654 c 3.20063,12.99997 14.33233,24.20187 28.51733,28.69714 6.56262,2.07973 10.48196,2.4406 21.46126,1.97603 26.7513,-1.13194 41.37114,-11.78541 41.20722,-30.02771 -0.077,-8.56561 -3.34702,-15.06973 -10.22954,-20.34649 -5.65237,-4.33364 -13.6218,-7.16505 -45.90713,-16.31017 -39.99795,-11.3298 -51.26544,-16.75326 -64.38548,-30.99113 -27.35339,-29.68394 -22.8893,-78.14417 9.62365,-104.470154 14.96068,-12.11376 32.33409,-18.23243 56.46078,-19.88467 25.84486,-1.76989 43.5373,1.256 62.87629,10.75358 25.43988,12.49382 43.60452,37.851904 43.70802,61.017504 l 0.033,7.38178 -26.43822,-0.34578 -26.43821,-0.34577 -0.49237,-3.83783 c -1.41286,-11.01215 -10.66368,-21.51017 -23.2861,-26.42554 -10.30621,-4.01339 -29.8088,-4.01613 -39.95942,-0.006 -11.24394,4.44249 -20.25366,15.9157 -20.25366,25.79154 0,4.72319 3.01838,11.96504 6.7717,16.24702 5.67907,6.47897 15.04303,10.31291 47.58314,19.48226 43.77531,12.33525 53.47192,16.71408 67.42004,30.44584 13.1431,12.93917 19.033,28.06989 19.0586,48.95945 0.033,26.54227 -10.908,47.62698 -32.24172,62.13743 -21.45841,14.59473 -57.08303,20.42622 -91.97548,15.05521 z M 618.2853,202.86325 V 73.656666 h 86.35093 86.35094 v 23.66654 23.666564 H 732.1406 673.29404 v 29.42328 29.42328 h 53.72947 53.72947 v 23.02692 23.02691 h -53.72947 -53.72947 v 30.06292 30.06292 h 59.4862 59.4862 v 23.02692 23.02691 H 705.27587 618.2853 Z"
       id="path1" />
  </g>
</svg>
